<?xml version="1.0" encoding="UTF-8" standalone="no"?>
<!DOCTYPE svg PUBLIC "-//W3C//DTD SVG 1.1//EN"
 "http://www.w3.org/Graphics/SVG/1.1/DTD/svg11.dtd">
<!-- Generated by graphviz version 2.44.1 (20200629.0846)
 -->
<!-- Title: dependencies Pages: 1 -->
<svg width="2311pt" height="284pt"
 viewBox="0.00 0.00 2311.00 284.00" xmlns="http://www.w3.org/2000/svg" xmlns:xlink="http://www.w3.org/1999/xlink">
<g id="graph0" class="graph" transform="scale(1 1) rotate(0) translate(4 280)">
<title>dependencies</title>
<polygon fill="white" stroke="transparent" points="-4,4 -4,-280 2307,-280 2307,4 -4,4"/>
<text text-anchor="start" x="1130.51" y="-42.4" font-family="sans-serif" font-weight="bold" font-size="14.00">Legend</text>
<polygon fill="#ffffb3" stroke="transparent" points="917.5,-10 917.5,-30 937.5,-30 937.5,-10 917.5,-10"/>
<text text-anchor="start" x="941.13" y="-15.4" font-family="sans-serif" font-size="14.00"> &#160;Declarations</text>
<polygon fill="#8dd3c7" stroke="transparent" points="1030.5,-10 1030.5,-30 1050.5,-30 1050.5,-10 1030.5,-10"/>
<text text-anchor="start" x="1054.23" y="-15.4" font-family="sans-serif" font-size="14.00"> &#160;Module</text>
<polygon fill="#80b1d3" stroke="transparent" points="1116.5,-10 1116.5,-30 1136.5,-30 1136.5,-10 1116.5,-10"/>
<text text-anchor="start" x="1140.28" y="-15.4" font-family="sans-serif" font-size="14.00"> &#160;Bootstrap</text>
<polygon fill="#fdb462" stroke="transparent" points="1213.5,-10 1213.5,-30 1233.5,-30 1233.5,-10 1213.5,-10"/>
<text text-anchor="start" x="1237.17" y="-15.4" font-family="sans-serif" font-size="14.00"> &#160;Providers</text>
<polygon fill="#fb8072" stroke="transparent" points="1309.5,-10 1309.5,-30 1329.5,-30 1329.5,-10 1309.5,-10"/>
<text text-anchor="start" x="1333.23" y="-15.4" font-family="sans-serif" font-size="14.00"> &#160;Exports</text>
<g id="clust1" class="cluster">
<title>cluster_AppModule</title>
<polygon fill="none" stroke="black" stroke-dasharray="1,5" points="8,-70 8,-268 2295,-268 2295,-70 8,-70"/>
</g>
<g id="clust2" class="cluster">
<title>cluster_AppModule_declarations</title>
<polygon fill="none" stroke="black" points="168,-78 168,-130 2287,-130 2287,-78 168,-78"/>
</g>
<g id="clust17" class="cluster">
<title>cluster_AppModule_imports</title>
<polygon fill="none" stroke="black" points="16,-78 16,-130 160,-130 160,-78 16,-78"/>
</g>
<g id="clust19" class="cluster">
<title>cluster_AppModule_bootstrap</title>
<polygon fill="none" stroke="black" points="1109,-208 1109,-260 1233,-260 1233,-208 1109,-208"/>
</g>
<!-- AlertasComponent -->
<g id="node1" class="node">
<title>AlertasComponent</title>
<polygon fill="#ffffb3" stroke="black" points="2278.75,-122 2157.25,-122 2157.25,-86 2278.75,-86 2278.75,-122"/>
<text text-anchor="middle" x="2218" y="-99.8" font-family="Times,serif" font-size="14.00">AlertasComponent</text>
</g>
<!-- AppModule -->
<g id="node15" class="node">
<title>AppModule</title>
<polygon fill="#8dd3c7" stroke="black" points="1212.66,-187 1209.66,-191 1188.66,-191 1185.66,-187 1129.34,-187 1129.34,-151 1212.66,-151 1212.66,-187"/>
<text text-anchor="middle" x="1171" y="-164.8" font-family="Times,serif" font-size="14.00">AppModule</text>
</g>
<!-- AlertasComponent&#45;&gt;AppModule -->
<g id="edge1" class="edge">
<title>AlertasComponent&#45;&gt;AppModule</title>
<path fill="none" stroke="black" d="M2218,-122.32C2218,-145.66 2218,-183 2218,-183 2218,-183 1222.69,-183 1222.69,-183"/>
<polygon fill="black" stroke="black" points="1222.69,-179.5 1212.69,-183 1222.69,-186.5 1222.69,-179.5"/>
</g>
<!-- AppComponent -->
<g id="node2" class="node">
<title>AppComponent</title>
<polygon fill="#ffffb3" stroke="black" points="2138.94,-122 2033.06,-122 2033.06,-86 2138.94,-86 2138.94,-122"/>
<text text-anchor="middle" x="2086" y="-99.8" font-family="Times,serif" font-size="14.00">AppComponent</text>
</g>
<!-- AppComponent&#45;&gt;AppModule -->
<g id="edge2" class="edge">
<title>AppComponent&#45;&gt;AppModule</title>
<path fill="none" stroke="black" d="M2086,-122.29C2086,-144.21 2086,-178 2086,-178 2086,-178 1222.69,-178 1222.69,-178"/>
<polygon fill="black" stroke="black" points="1222.69,-174.5 1212.69,-178 1222.69,-181.5 1222.69,-174.5"/>
</g>
<!-- CadastroComponent -->
<g id="node3" class="node">
<title>CadastroComponent</title>
<polygon fill="#ffffb3" stroke="black" points="2015.59,-122 1884.41,-122 1884.41,-86 2015.59,-86 2015.59,-122"/>
<text text-anchor="middle" x="1950" y="-99.8" font-family="Times,serif" font-size="14.00">CadastroComponent</text>
</g>
<!-- CadastroComponent&#45;&gt;AppModule -->
<g id="edge3" class="edge">
<title>CadastroComponent&#45;&gt;AppModule</title>
<path fill="none" stroke="black" d="M1950,-122.03C1950,-142.77 1950,-174 1950,-174 1950,-174 1222.88,-174 1222.88,-174"/>
<polygon fill="black" stroke="black" points="1222.88,-170.5 1212.88,-174 1222.88,-177.5 1222.88,-170.5"/>
</g>
<!-- DeleteEmpresaComponent -->
<g id="node4" class="node">
<title>DeleteEmpresaComponent</title>
<polygon fill="#ffffb3" stroke="black" points="1866.34,-122 1699.66,-122 1699.66,-86 1866.34,-86 1866.34,-122"/>
<text text-anchor="middle" x="1783" y="-99.8" font-family="Times,serif" font-size="14.00">DeleteEmpresaComponent</text>
</g>
<!-- DeleteEmpresaComponent&#45;&gt;AppModule -->
<g id="edge4" class="edge">
<title>DeleteEmpresaComponent&#45;&gt;AppModule</title>
<path fill="none" stroke="black" d="M1783,-122.11C1783,-141.34 1783,-169 1783,-169 1783,-169 1223.07,-169 1223.07,-169"/>
<polygon fill="black" stroke="black" points="1223.07,-165.5 1213.07,-169 1223.07,-172.5 1223.07,-165.5"/>
</g>
<!-- DeletePostagemComponent -->
<g id="node5" class="node">
<title>DeletePostagemComponent</title>
<polygon fill="#ffffb3" stroke="black" points="1681.3,-122 1508.7,-122 1508.7,-86 1681.3,-86 1681.3,-122"/>
<text text-anchor="middle" x="1595" y="-99.8" font-family="Times,serif" font-size="14.00">DeletePostagemComponent</text>
</g>
<!-- DeletePostagemComponent&#45;&gt;AppModule -->
<g id="edge5" class="edge">
<title>DeletePostagemComponent&#45;&gt;AppModule</title>
<path fill="none" stroke="black" d="M1595,-122.3C1595,-140.27 1595,-165 1595,-165 1595,-165 1222.82,-165 1222.82,-165"/>
<polygon fill="black" stroke="black" points="1222.82,-161.5 1212.82,-165 1222.82,-168.5 1222.82,-161.5"/>
</g>
<!-- FeedComponent -->
<g id="node6" class="node">
<title>FeedComponent</title>
<polygon fill="#ffffb3" stroke="black" points="1491.05,-122 1382.95,-122 1382.95,-86 1491.05,-86 1491.05,-122"/>
<text text-anchor="middle" x="1437" y="-99.8" font-family="Times,serif" font-size="14.00">FeedComponent</text>
</g>
<!-- FeedComponent&#45;&gt;AppModule -->
<g id="edge6" class="edge">
<title>FeedComponent&#45;&gt;AppModule</title>
<path fill="none" stroke="black" d="M1437,-122.03C1437,-138.4 1437,-160 1437,-160 1437,-160 1222.86,-160 1222.86,-160"/>
<polygon fill="black" stroke="black" points="1222.86,-156.5 1212.86,-160 1222.86,-163.5 1222.86,-156.5"/>
</g>
<!-- FooterComponent -->
<g id="node7" class="node">
<title>FooterComponent</title>
<polygon fill="#ffffb3" stroke="black" points="1364.88,-122 1247.12,-122 1247.12,-86 1364.88,-86 1364.88,-122"/>
<text text-anchor="middle" x="1306" y="-99.8" font-family="Times,serif" font-size="14.00">FooterComponent</text>
</g>
<!-- FooterComponent&#45;&gt;AppModule -->
<g id="edge7" class="edge">
<title>FooterComponent&#45;&gt;AppModule</title>
<path fill="none" stroke="black" d="M1306,-122.19C1306,-137.18 1306,-156 1306,-156 1306,-156 1222.97,-156 1222.97,-156"/>
<polygon fill="black" stroke="black" points="1222.97,-152.5 1212.97,-156 1222.97,-159.5 1222.97,-152.5"/>
</g>
<!-- HomeComponent -->
<g id="node8" class="node">
<title>HomeComponent</title>
<polygon fill="#ffffb3" stroke="black" points="1228.55,-122 1113.45,-122 1113.45,-86 1228.55,-86 1228.55,-122"/>
<text text-anchor="middle" x="1171" y="-99.8" font-family="Times,serif" font-size="14.00">HomeComponent</text>
</g>
<!-- HomeComponent&#45;&gt;AppModule -->
<g id="edge8" class="edge">
<title>HomeComponent&#45;&gt;AppModule</title>
<path fill="none" stroke="black" d="M1171,-122.11C1171,-122.11 1171,-140.99 1171,-140.99"/>
<polygon fill="black" stroke="black" points="1167.5,-140.99 1171,-150.99 1174.5,-140.99 1167.5,-140.99"/>
</g>
<!-- LoginComponent -->
<g id="node9" class="node">
<title>LoginComponent</title>
<polygon fill="#ffffb3" stroke="black" points="1095.28,-122 980.72,-122 980.72,-86 1095.28,-86 1095.28,-122"/>
<text text-anchor="middle" x="1038" y="-99.8" font-family="Times,serif" font-size="14.00">LoginComponent</text>
</g>
<!-- LoginComponent&#45;&gt;AppModule -->
<g id="edge9" class="edge">
<title>LoginComponent&#45;&gt;AppModule</title>
<path fill="none" stroke="black" d="M1038,-122.19C1038,-137.18 1038,-156 1038,-156 1038,-156 1119.28,-156 1119.28,-156"/>
<polygon fill="black" stroke="black" points="1119.28,-159.5 1129.28,-156 1119.28,-152.5 1119.28,-159.5"/>
</g>
<!-- NavbarComponent -->
<g id="node10" class="node">
<title>NavbarComponent</title>
<polygon fill="#ffffb3" stroke="black" points="962.03,-122 839.97,-122 839.97,-86 962.03,-86 962.03,-122"/>
<text text-anchor="middle" x="901" y="-99.8" font-family="Times,serif" font-size="14.00">NavbarComponent</text>
</g>
<!-- NavbarComponent&#45;&gt;AppModule -->
<g id="edge10" class="edge">
<title>NavbarComponent&#45;&gt;AppModule</title>
<path fill="none" stroke="black" d="M901,-122.03C901,-138.4 901,-160 901,-160 901,-160 1119.11,-160 1119.11,-160"/>
<polygon fill="black" stroke="black" points="1119.11,-163.5 1129.11,-160 1119.11,-156.5 1119.11,-163.5"/>
</g>
<!-- PostEmpresaComponent -->
<g id="node11" class="node">
<title>PostEmpresaComponent</title>
<polygon fill="#ffffb3" stroke="black" points="822.43,-122 667.57,-122 667.57,-86 822.43,-86 822.43,-122"/>
<text text-anchor="middle" x="745" y="-99.8" font-family="Times,serif" font-size="14.00">PostEmpresaComponent</text>
</g>
<!-- PostEmpresaComponent&#45;&gt;AppModule -->
<g id="edge11" class="edge">
<title>PostEmpresaComponent&#45;&gt;AppModule</title>
<path fill="none" stroke="black" d="M745,-122.3C745,-140.27 745,-165 745,-165 745,-165 1118.99,-165 1118.99,-165"/>
<polygon fill="black" stroke="black" points="1118.99,-168.5 1128.99,-165 1118.99,-161.5 1118.99,-168.5"/>
</g>
<!-- PutEmpresaComponent -->
<g id="node12" class="node">
<title>PutEmpresaComponent</title>
<polygon fill="#ffffb3" stroke="black" points="649.48,-122 500.52,-122 500.52,-86 649.48,-86 649.48,-122"/>
<text text-anchor="middle" x="575" y="-99.8" font-family="Times,serif" font-size="14.00">PutEmpresaComponent</text>
</g>
<!-- PutEmpresaComponent&#45;&gt;AppModule -->
<g id="edge12" class="edge">
<title>PutEmpresaComponent&#45;&gt;AppModule</title>
<path fill="none" stroke="black" d="M575,-122.11C575,-141.34 575,-169 575,-169 575,-169 1119.09,-169 1119.09,-169"/>
<polygon fill="black" stroke="black" points="1119.09,-172.5 1129.09,-169 1119.09,-165.5 1119.09,-172.5"/>
</g>
<!-- PutPostagemComponent -->
<g id="node13" class="node">
<title>PutPostagemComponent</title>
<polygon fill="#ffffb3" stroke="black" points="482.44,-122 327.56,-122 327.56,-86 482.44,-86 482.44,-122"/>
<text text-anchor="middle" x="405" y="-99.8" font-family="Times,serif" font-size="14.00">PutPostagemComponent</text>
</g>
<!-- PutPostagemComponent&#45;&gt;AppModule -->
<g id="edge13" class="edge">
<title>PutPostagemComponent&#45;&gt;AppModule</title>
<path fill="none" stroke="black" d="M405,-122.03C405,-142.77 405,-174 405,-174 405,-174 1119.27,-174 1119.27,-174"/>
<polygon fill="black" stroke="black" points="1119.27,-177.5 1129.27,-174 1119.27,-170.5 1119.27,-177.5"/>
</g>
<!-- SobrenosComponent -->
<g id="node14" class="node">
<title>SobrenosComponent</title>
<polygon fill="#ffffb3" stroke="black" points="309.94,-122 176.06,-122 176.06,-86 309.94,-86 309.94,-122"/>
<text text-anchor="middle" x="243" y="-99.8" font-family="Times,serif" font-size="14.00">SobrenosComponent</text>
</g>
<!-- SobrenosComponent&#45;&gt;AppModule -->
<g id="edge14" class="edge">
<title>SobrenosComponent&#45;&gt;AppModule</title>
<path fill="none" stroke="black" d="M243,-122.29C243,-144.21 243,-178 243,-178 243,-178 1119.32,-178 1119.32,-178"/>
<polygon fill="black" stroke="black" points="1119.32,-181.5 1129.32,-178 1119.32,-174.5 1119.32,-181.5"/>
</g>
<!-- AppComponent  -->
<g id="node17" class="node">
<title>AppComponent </title>
<polygon fill="#80b1d3" stroke="black" points="1225.44,-252 1116.56,-252 1116.56,-216 1225.44,-216 1225.44,-252"/>
<text text-anchor="middle" x="1171" y="-229.8" font-family="Times,serif" font-size="14.00">AppComponent </text>
</g>
<!-- AppModule&#45;&gt;AppComponent  -->
<g id="edge16" class="edge">
<title>AppModule&#45;&gt;AppComponent </title>
<path fill="none" stroke="black" stroke-dasharray="1,5" d="M1171,-187.11C1171,-187.11 1171,-205.99 1171,-205.99"/>
<polygon fill="black" stroke="black" points="1167.5,-205.99 1171,-215.99 1174.5,-205.99 1167.5,-205.99"/>
</g>
<!-- AppRoutingModule -->
<g id="node16" class="node">
<title>AppRoutingModule</title>
<polygon fill="#8dd3c7" stroke="black" points="152.27,-122 149.27,-126 128.27,-126 125.27,-122 23.73,-122 23.73,-86 152.27,-86 152.27,-122"/>
<text text-anchor="middle" x="88" y="-99.8" font-family="Times,serif" font-size="14.00">AppRoutingModule</text>
</g>
<!-- AppRoutingModule&#45;&gt;AppModule -->
<g id="edge15" class="edge">
<title>AppRoutingModule&#45;&gt;AppModule</title>
<path fill="none" stroke="black" d="M88,-122.32C88,-145.66 88,-183 88,-183 88,-183 1119.21,-183 1119.21,-183"/>
<polygon fill="black" stroke="black" points="1119.21,-186.5 1129.21,-183 1119.21,-179.5 1119.21,-186.5"/>
</g>
</g>
</svg>
